<mxfile host="app.diagrams.net" modified="2024-02-19T08:54:34.761Z" agent="Mozilla/5.0 (Windows NT 10.0; Win64; x64) AppleWebKit/537.36 (KHTML, like Gecko) Chrome/121.0.0.0 Safari/537.36 Edg/121.0.0.0" version="23.1.1" etag="M6mm3PxSslsYBUe2eHEM" type="github">
  <diagram name="第 1 页" id="ot6KtEa7QkszBs4LFUI3">
    <mxGraphModel>
      <root>
        <mxCell id="0" />
        <mxCell id="1" parent="0" />
      </root>
    </mxGraphModel>
  </diagram>
</mxfile>
